<?xml version="1.0" encoding="utf-8"?>
<!-- Generator: Adobe Illustrator 25.2.1, SVG Export Plug-In . SVG Version: 6.00 Build 0)  -->
<svg version="1.1" id="Layer_1" xmlns="http://www.w3.org/2000/svg" xmlns:xlink="http://www.w3.org/1999/xlink" x="0px" y="0px"
	 viewBox="0 0 64 64" style="enable-background:new 0 0 64 64;" xml:space="preserve">
<style type="text/css">
	.st0{fill-rule:evenodd;clip-rule:evenodd;}
</style>
<path class="st0" d="M56,64H8c-4.4,0-8-3.6-8-8v-6c0-3.3,2.5-6.2,6.8-8.6l0,0c0.3-0.1,0.6-0.2,0.9-0.2c1,0,1.9,0.8,1.9,1.9
	c0,0.7-0.4,1.3-1,1.6l0,0C5.7,46.2,4,48.1,4,50v6c0,2.2,1.8,4,4,4h48c2.2,0,4-1.8,4-4v-6c0-5.5-12.5-10-28-10
	c-3.7,0-7.1-1.3-9.8-3.3l0,0c-3.5-2.7-5.8-6.8-6.2-11.4c0-0.4-0.1-0.8-0.1-1.2V12c0-6.6,5.4-12,12-12h8c6.6,0,12,5.4,12,12v12
	c0,0.4,0,0.8-0.1,1.2c-0.2,2.3-0.9,4.5-1.9,6.4c-0.3,0.8-1,1.4-1.9,1.4c-1.1,0-2-0.9-2-2c0-0.3,0.1-0.7,0.2-0.9l0,0
	c1-1.8,1.7-3.8,1.7-6.1V12c0-4.4-3.6-8-8-8h-8c-4.4,0-8,3.6-8,8v12c0,6.4,5.1,11.7,11.5,12c0.2,0,0.3,0,0.5,0c3.4,0,6.7,0.2,9.8,0.7
	c0.8,0.1,1.6,0.2,2.3,0.4c0,0,0.1,0,0.1,0c0.7,0.1,1.5,0.3,2.2,0.4c0.1,0,0.1,0,0.2,0c1.4,0.3,2.8,0.7,4,1.1c0.1,0,0.1,0,0.2,0.1
	c0.6,0.2,1.2,0.4,1.8,0.6c0,0,0.1,0,0.1,0c0.6,0.2,1.2,0.4,1.7,0.7c0,0,0,0,0.1,0c0.5,0.2,1.1,0.5,1.6,0.7c0.1,0,0.1,0.1,0.2,0.1
	c0.5,0.3,1,0.5,1.4,0.8c0,0,0,0,0,0c0.5,0.3,0.9,0.5,1.3,0.8c0.1,0,0.1,0.1,0.2,0.1c0.4,0.3,0.8,0.6,1.1,0.8c0.1,0,0.1,0.1,0.2,0.1
	c0.3,0.3,0.6,0.6,0.9,0.9c0,0,0,0,0,0c0.3,0.3,0.6,0.6,0.8,0.9c0,0.1,0.1,0.1,0.1,0.2c0.2,0.3,0.4,0.6,0.6,0.9c0,0,0,0.1,0.1,0.1
	c0.2,0.3,0.3,0.6,0.4,0.9c0,0.1,0.1,0.1,0.1,0.2c0.1,0.3,0.2,0.7,0.3,1c0,0.1,0,0.1,0,0.2c0.1,0.3,0.1,0.7,0.1,1v6
	C64,60.4,60.4,64,56,64L56,64z M18,40c0,1.1-0.9,2-2,2s-2-0.9-2-2s0.9-2,2-2S18,38.9,18,40L18,40z"/>
</svg>
