<?xml version="1.0" encoding="utf-8"?>
<!-- Generator: Adobe Illustrator 25.2.1, SVG Export Plug-In . SVG Version: 6.00 Build 0)  -->
<svg version="1.1" id="Layer_1" xmlns="http://www.w3.org/2000/svg" xmlns:xlink="http://www.w3.org/1999/xlink" x="0px" y="0px"
	 viewBox="0 0 64 64" style="enable-background:new 0 0 64 64;" xml:space="preserve">
<style type="text/css">
	.st0{fill-rule:evenodd;clip-rule:evenodd;}
</style>
<path class="st0" d="M50,52c-1.1,0-2-0.9-2-2c0-1.1,0.9-2,2-2s2,0.9,2,2C52,51.1,51.1,52,50,52L50,52z M48,32h2c1.1,0,2,0.9,2,2
	c0,1.1-0.9,2-2,2h-0.7c-0.7,0-1.3,0.6-1.3,1.3V38c0,1.1-0.9,2-2,2s-2-0.9-2-2v-2C44,33.8,45.8,32,48,32L48,32z M42,44
	c1.1,0,2,0.9,2,2c0,1.1-0.9,2-2,2h-0.7c-0.7,0-1.3,0.6-1.3,1.3V50c0,1.1-0.9,2-2,2s-2-0.9-2-2v-2c0-2.2,1.8-4,4-4H42L42,44z M36,32
	h2c1.1,0,2,0.9,2,2c0,1.1-0.9,2-2,2h-0.7c-0.7,0-1.3,0.6-1.3,1.3V38c0,1.1-0.9,2-2,2s-2-0.9-2-2v-2C32,33.8,33.8,32,36,32L36,32z
	 M30,44c1.1,0,2,0.9,2,2c0,1.1-0.9,2-2,2h-0.7c-0.7,0-1.3,0.6-1.3,1.3V50c0,1.1-0.9,2-2,2c-1.1,0-2-0.9-2-2v-2c0-2.2,1.8-4,4-4H30
	L30,44z M24,32h2c1.1,0,2,0.9,2,2c0,1.1-0.9,2-2,2h-0.7c-0.7,0-1.3,0.6-1.3,1.3V38c0,1.1-0.9,2-2,2s-2-0.9-2-2v-2
	C20,33.8,21.8,32,24,32L24,32z M14,52c-1.1,0-2-0.9-2-2v-2c0-2.2,1.8-4,4-4h2c1.1,0,2,0.9,2,2c0,1.1-0.9,2-2,2h-0.7
	c-0.7,0-1.3,0.6-1.3,1.3V50C16,51.1,15.1,52,14,52L14,52z M62,32c-1.1,0-2-0.9-2-2c0-1.1,0.9-2,2-2s2,0.9,2,2C64,31.1,63.1,32,62,32
	L62,32z M56,64H8c-4.4,0-8-3.6-8-8V28c0-4.4,3.6-8,8-8h46h0.1H58c1.1,0,2-0.9,2-2v-1v-1c0-2.2-1.8-4-4-4h-3c-2.8,0-5-2.2-5-5V6
	c0-1.1-0.9-2-2-2s-2,0.9-2,2v1c0,2.8-2.2,5-5,5H25c-2.8,0-5-2.2-5-5V6c0-1.1-0.9-2-2-2s-2,0.9-2,2v1c0,2.8-2.2,5-5,5H8
	c-2.2,0-4,1.8-4,4c0,1.1-0.9,2-2,2s-2-0.9-2-2c0-4.4,3.6-8,8-8h2c1.1,0,2-0.9,2-2c0-3.3,2.7-6,6-6s6,2.7,6,6c0,1.1,0.9,2,2,2h12
	c1.1,0,2-0.9,2-2c0-3.3,2.7-6,6-6s6,2.7,6,6c0,1.1,0.9,2,2,2h2c4.4,0,8,3.6,8,8v3c0,2.8-2.2,5-5,5H16h-1.1H8c-2.2,0-4,1.8-4,4v6.9
	V36v20c0,2.2,1.8,4,4,4h48c2.2,0,4-1.8,4-4V38c0-1.1,0.9-2,2-2s2,0.9,2,2v18C64,60.4,60.4,64,56,64L56,64z"/>
</svg>
