<?xml version="1.0" encoding="utf-8"?>
<!-- Generator: Adobe Illustrator 25.2.1, SVG Export Plug-In . SVG Version: 6.00 Build 0)  -->
<svg version="1.1" id="Layer_1" xmlns="http://www.w3.org/2000/svg" xmlns:xlink="http://www.w3.org/1999/xlink" x="0px" y="0px"
	 viewBox="0 0 63.9 64" style="enable-background:new 0 0 63.9 64;" xml:space="preserve">
<style type="text/css">
	.st0{fill-rule:evenodd;clip-rule:evenodd;}
</style>
<path class="st0" d="M63.7,17.8l-5.2,20.3C57.3,42.4,54.1,44,49,44H18.5c-1.1,0-2,0.9-2,2c0,0.2,0,0.3,0,0.4c0,0,0,0,0,0l0.5,2.5
	c0.4,1.7,2,3,3.9,3H26c0.1,0,0.3,0,0.4,0c3.1,0.2,5.6,2.8,5.6,6c0,3.3-2.7,6-6,6c-1.7,0-3.2-0.7-4.2-1.8l0,0
	c-0.4-0.4-0.6-0.9-0.6-1.4c0-1.1,0.9-2,2-2c0.6,0,1.1,0.2,1.4,0.6l0,0c0.4,0.4,0.9,0.6,1.4,0.6c1.1,0,2-0.9,2-2s-0.9-2-2-2h-5
	c-3.8,0-7-2.7-7.8-6.3l-0.7-3.7c-0.1-0.3-0.1-0.6-0.1-0.9c0-2.8,2.2-5,5-5H20h30c2.4,0,4-0.8,4.6-2.9l5.2-20.3
	c0.1-0.4,0.2-0.8,0.2-1.1c0-1.8-1.2-3.6-3-3.6H20h-4h-2c-2.4,0-4.4-1.7-4.9-4c0,0,0,0,0,0L8.9,7c-0.4-1.7-2-3-3.9-3H2
	C0.9,4,0,3.1,0,2s0.9-2,2-2h3c3.8,0,7,2.7,7.8,6.3l0,0.1c0.2,0.9,1,1.6,2,1.6c0.3,0,0.5,0,0.7,0c0.2,0,0.3,0,0.5,0h42
	c3.2,0,5.9,4,5.9,7.9C63.9,16.5,63.8,17.2,63.7,17.8L63.7,17.8z M14,32c1.1,0,2,0.9,2,2s-0.9,2-2,2s-2-0.9-2-2S12.9,32,14,32L14,32z
	 M13,16c1.2-0.1,2.2,0.7,2.3,1.8l0.7,8c0.1,1.1-0.8,2.1-2,2.2c-1.2,0.1-2.2-0.7-2.3-1.8l-0.7-8C10.9,17,11.8,16.1,13,16L13,16z
	 M38,52h8c0.1,0,0.3,0,0.4,0c3.1,0.2,5.6,2.8,5.6,6c0,3.3-2.7,6-6,6c-1.7,0-3.2-0.7-4.2-1.8l0,0c-0.4-0.4-0.6-0.9-0.6-1.4
	c0-1.1,0.9-2,2-2c0.6,0,1.1,0.2,1.4,0.6l0,0c0.4,0.4,0.9,0.6,1.4,0.6c1.1,0,2-0.9,2-2s-0.9-2-2-2h-5.6H40h-2c-1.1,0-2-0.9-2-2
	S36.9,52,38,52L38,52z"/>
</svg>
