<?xml version="1.0" encoding="utf-8"?>
<!-- Generator: Adobe Illustrator 25.2.1, SVG Export Plug-In . SVG Version: 6.00 Build 0)  -->
<svg version="1.1" id="Layer_1" xmlns="http://www.w3.org/2000/svg" xmlns:xlink="http://www.w3.org/1999/xlink" x="0px" y="0px"
	 viewBox="0 0 64 56" style="enable-background:new 0 0 64 56;" xml:space="preserve">
<style type="text/css">
	.st0{fill-rule:evenodd;clip-rule:evenodd;}
</style>
<path class="st0" d="M58,32c-1.1,0-2,0.9-2,2v1c0,2.8-2.2,5-5,5c-1.1,0-2.1-0.4-2.9-0.9c0,0,0,0,0,0l-4.9-3.7
	C41.2,33.9,40,31.6,40,29v-4c0-2.8-2.2-5-5-5H9c-2.8,0-5,2.2-5,5v14c0,2.5,1.8,4.6,4.2,4.9c0,0,0,0,0.1,0c1.5,0.3,3.7,2.4,3.7,5V51
	c0,0.6,0.4,1,1,1c0.2,0,0.4-0.1,0.6-0.2l0,0l8.4-6.3c1.3-0.9,2.8-1.5,4.5-1.5H34c1.1,0,2,0.9,2,2c0,1.1-0.9,2-2,2h-7
	c-1.1,0-2.2,0.4-3.1,1c0,0,0,0,0,0l-8,6c0,0,0,0,0,0C15.1,55.6,14.1,56,13,56c-2.8,0-5-2.2-5-5v-1.2c0-1.1-0.9-1.8-2-2
	c0,0,0,0-0.1,0C2.5,46.8,0,43.7,0,40V24c0-4.4,3.6-8,8-8h28c4.4,0,8,3.6,8,8v5c0,1.3,0.6,2.5,1.6,3.2l4.8,3.6l0,0
	c0.2,0.1,0.4,0.2,0.6,0.2c0.6,0,1-0.4,1-1v-2c0-2.8,2.5-5,4-5c1.9,0,4-2.2,4-5V9c0-2.8-2.2-5-5-5H29c-2.8,0-5,2.2-5,5v1
	c0,1.1-0.9,2-2,2s-2-0.9-2-2V8c0-4.4,3.6-8,8-8h28c4.4,0,8,3.6,8,8v16C64,28.4,60.8,32,58,32L58,32z M42,40c1.1,0,2,0.9,2,2
	c0,1.1-0.9,2-2,2s-2-0.9-2-2C40,40.9,40.9,40,42,40L42,40z"/>
</svg>
