<?xml version="1.0" encoding="utf-8"?>
<!-- Generator: Adobe Illustrator 25.2.1, SVG Export Plug-In . SVG Version: 6.00 Build 0)  -->
<svg version="1.1" id="Layer_1" xmlns="http://www.w3.org/2000/svg" xmlns:xlink="http://www.w3.org/1999/xlink" x="0px" y="0px"
	 viewBox="0 0 63.9 56.8" style="enable-background:new 0 0 63.9 56.8;" xml:space="preserve">
<style type="text/css">
	.st0{fill-rule:evenodd;clip-rule:evenodd;}
</style>
<path class="st0" d="M14.8,26.2c-0.7,0.7-1.8,0.7-2.5,0.2l0,0.1l-1.4-1.4c-3.9-3.9-3.9-10.2,0-14.1l0,0l0,0c0.8-0.8,2-0.8,2.8,0
	c0.8,0.8,0.8,2,0,2.8l0,0l0,0c-2.3,2.3-2.3,6.1,0,8.5l1.2,1.2l0,0c0,0,0,0,0,0l0.2,0.2L15,23.7C15.5,24.5,15.5,25.5,14.8,26.2
	L14.8,26.2z M20,12.2c-0.8-0.8-0.8-2,0-2.8c0.8-0.8,2-0.8,2.8,0c0.8,0.8,0.8,2.1,0,2.8C22,13,20.7,13,20,12.2L20,12.2z M58.9,30.7
	L44.7,44.9l0,0l1.3-1.3c-0.8,0.8-2,0.8-2.8,0c-0.8-0.8-0.8-2,0-2.8l11.4-11.4l0,0l0,0l1.4-1.4c5-5,5.5-14.3,0-19.8
	c-5.5-5.5-14.3-5.5-19.8,0l-1.4,1.4l0,0c-0.7,0.7-1.7,1.2-2.8,1.2c-1.1,0-2.1-0.5-2.8-1.2h0l-1.4-1.4C22.3,2.6,13.4,2.6,8,8.1
	c-5.5,5.5-5.1,14.7,0,19.8l11.4,11.4l14.1,14.1c0,0,0,0,0,0c0.8,0.8,0.8,2,0,2.8c-0.8,0.8-2,0.8-2.8,0L19.3,44.9L5.1,30.7
	c-6.7-6.7-7-18.4,0-25.5c7-7,18.4-7,25.5,0L32,6.7l1.4-1.4c7-7,18.4-7,25.5,0C65.9,12.3,65.3,24.3,58.9,30.7L58.9,30.7z M41.1,45.7
	c0.8,0.8,0.8,2,0,2.8c-0.8,0.8-2,0.8-2.8,0c-0.8-0.8-0.8-2,0-2.8C39,44.9,40.3,44.9,41.1,45.7L41.1,45.7z"/>
</svg>
