<?xml version="1.0" encoding="utf-8"?>
<!-- Generator: Adobe Illustrator 25.2.1, SVG Export Plug-In . SVG Version: 6.00 Build 0)  -->
<svg version="1.1" id="Layer_1" xmlns="http://www.w3.org/2000/svg" xmlns:xlink="http://www.w3.org/1999/xlink" x="0px" y="0px"
	 viewBox="0 0 64 64" style="enable-background:new 0 0 64 64;" xml:space="preserve">
<style type="text/css">
	.st0{fill-rule:evenodd;clip-rule:evenodd;}
</style>
<path class="st0" d="M63.4,27.5c-0.8,0.8-2,0.8-2.8,0c-0.8-0.8-0.8-2,0-2.8c0.8-0.8,2-0.8,2.8,0C64.2,25.4,64.2,26.7,63.4,27.5
	L63.4,27.5z M43.6,44.9c0.1,0.1,0.1,0.2-0.1,0.4c-0.4,0.6-0.7,1.4-0.7,2.2c0,0.1,0,0.2,0,0.4c0.1,0.8,0.1,1.4-0.1,1.8
	c-0.1,3.4-1.5,6.9-4.1,9.5c-2.3,2.3-6.1,2.3-8.5,0L18.9,48l-5.7,5.7l5.7,5.7c0,0,0,0,0,0l-5.7-5.7l-3.8,3.8c-0.8,0.8-2,0.8-2.8,0
	c-0.8-0.8-0.8-2,0-2.8l3.8-3.8l-5.7-5.7l0,0l5.7,5.7l5.7-5.7L4.7,33.8c-2.3-2.3-2.3-6.1,0-8.5c2.8-2.8,6.5-4.1,10.2-4.1
	c0.2,0,0.5,0,0.7,0c0.1,0,0.2,0,0.2,0c0.1,0,0.1,0,0.2,0c0.1,0,0.2,0,0.4,0c0.8,0,1.6-0.3,2.2-0.7l16.1-11l0,0
	c0.8-0.6,2-0.6,2.7,0.2c0.8,0.8,0.8,2.1,0,3c-0.1,0.1-0.2,0.1-0.3,0.2l0,0L21.2,24c-1.3,0.9-2.8,1.4-4.5,1.4c-0.3,0-0.6,0-0.8,0
	c-0.3,0-0.6,0-0.8,0c-2.7-0.1-5.4,0.8-7.5,2.9l0,0l0,0c-0.8,0.8-0.8,2,0,2.8L33,56.4c0.8,0.8,2,0.8,2.8,0c1.9-1.9,2.8-4.3,2.9-6.7
	c0.1-0.3,0.2-0.8,0.1-1.5c0-0.3,0-0.6,0-0.8c0-1.7,0.5-3.2,1.4-4.5c0.2-0.3,0.4-0.7,0.5-1.1l13-19.1c0.5-0.8,0.5-1.8-0.2-2.5
	L42.6,9.4l0,0l-3-3l0,0l-3-3c-0.8-0.8-0.8-2,0-2.8c0.8-0.8,2-0.8,2.8,0l3.5,3.5l0,0l13.5,13.5c2,2,2.3,5.2,0.8,7.5L43.6,44.9
	L43.6,44.9z M4,62c0,1.1-0.9,2-2,2c-1.1,0-2-0.9-2-2c0-1.1,0.9-2,2-2C3.1,60,4,60.9,4,62L4,62z"/>
</svg>
