<?xml version="1.0" encoding="utf-8"?>
<!-- Generator: Adobe Illustrator 25.2.1, SVG Export Plug-In . SVG Version: 6.00 Build 0)  -->
<svg version="1.1" id="Layer_1" xmlns="http://www.w3.org/2000/svg" xmlns:xlink="http://www.w3.org/1999/xlink" x="0px" y="0px"
	 viewBox="0 0 64 60" style="enable-background:new 0 0 64 60;" xml:space="preserve">
<style type="text/css">
	.st0{fill-rule:evenodd;clip-rule:evenodd;}
</style>
<path class="st0" d="M62,48c-1.1,0-2-0.9-2-2V14c0-1.1-0.9-2-2-2h-4c-1.1,0-2,0.9-2,2v41c0,2.8-2.2,5-5,5h-2c-2.8,0-5-2.2-5-5V34
	c0-1.1-0.9-2-2-2h-4c-1.1,0-2,0.9-2,2v21c0,2.8-2.2,5-5,5h-2c-2.8,0-5-2.2-5-5V42c0-1.1-0.9-2-2-2h-4c-1.1,0-2,0.9-2,2v14
	c0,2.2-1.8,4-4,4c-4.4,0-8-3.6-8-8V16V2c0-1.1,0.9-2,2-2s2,0.9,2,2v7.1V16v36c0,2.2,1.5,4,3,4c0.6,0,1-0.4,1-1V41c0-2.8,2.2-5,5-5h6
	c2.8,0,5,2.2,5,5v13c0,1.1,0.9,2,2,2s2-0.9,2-2V33c0-2.8,2.2-5,5-5h6c2.8,0,5,2.2,5,5v21c0,1.1,0.9,2,2,2s2-0.9,2-2V13
	c0-2.8,2.2-5,5-5h6c2.8,0,5,2.2,5,5v33C64,47.1,63.1,48,62,48L62,48z M62,52c1.1,0,2,0.9,2,2c0,1.1-0.9,2-2,2s-2-0.9-2-2
	C60,52.9,60.9,52,62,52L62,52z"/>
</svg>
