<?xml version="1.0" encoding="utf-8"?>
<!-- Generator: Adobe Illustrator 25.2.1, SVG Export Plug-In . SVG Version: 6.00 Build 0)  -->
<svg version="1.1" id="Layer_1" xmlns="http://www.w3.org/2000/svg" xmlns:xlink="http://www.w3.org/1999/xlink" x="0px" y="0px"
	 viewBox="0 0 64 52" style="enable-background:new 0 0 64 52;" xml:space="preserve">
<style type="text/css">
	.st0{fill-rule:evenodd;clip-rule:evenodd;}
</style>
<path class="st0" d="M54,16c-3.2,0-5.7-2.5-6-5.6c0-0.1,0-0.3,0-0.4c0-1.1,0.9-2,2-2s2,0.9,2,2s0.9,2,2,2s2,0.9,2,2S55.1,16,54,16
	L54,16z M50,42c0,1.1-0.9,2-2,2s-2-0.9-2-2s0.9-2,2-2S50,40.9,50,42L50,42z M43.2,25.2l-1.2,1.2c-0.8,0.8-2,0.8-2.8,0
	c-0.8-0.8-0.8-2,0-2.8l1.2-1.2c3.1-3.1,8.2-3.1,11.3,0l4.2,4.2c0.8,0.8,0.8,2,0,2.8c-0.8,0.8-2,0.8-2.8,0l-4.2-4.2
	C47.3,23.6,44.7,23.6,43.2,25.2L43.2,25.2z M56,52H8c-4.4,0-8-3.6-8-8v-6c0-1.1,0.9-2,2-2s2,0.9,2,2v6c0,2.2,1.8,4,4,4h48
	c2.2,0,4-1.8,4-4V8c0-2.2-1.8-4-4-4H8C5.8,4,4,5.8,4,8v19.3c0,0.5,0.4,1,1,1c0.3,0,0.5-0.1,0.7-0.3l9.7-9.7c3.1-3.1,8.2-3.1,11.3,0
	l16.8,16.8c0.4,0.4,0.7,0.9,0.7,1.5c0,1.1-0.9,2-2,2c-0.6,0-1.1-0.3-1.5-0.7l0,0L23.8,21.2c-1.6-1.6-4.1-1.6-5.7,0l-9.7,9.7
	c-0.9,0.9-2.1,1.4-3.5,1.4c-2.8,0-5-2.2-5-5V8c0-4.4,3.6-8,8-8h48c4.4,0,8,3.6,8,8v36C64,48.4,60.4,52,56,52L56,52z"/>
</svg>
