<?xml version="1.0" encoding="utf-8"?>
<!-- Generator: Adobe Illustrator 25.2.1, SVG Export Plug-In . SVG Version: 6.00 Build 0)  -->
<svg version="1.1" id="Layer_1" xmlns="http://www.w3.org/2000/svg" xmlns:xlink="http://www.w3.org/1999/xlink" x="0px" y="0px"
	 viewBox="0 0 64 64" style="enable-background:new 0 0 64 64;" xml:space="preserve">
<style type="text/css">
	.st0{fill-rule:evenodd;clip-rule:evenodd;}
</style>
<path class="st0" d="M32,64h-2c-1.1,0-2-0.9-2-2c0-1.1,0.9-2,2-2h2c15.5,0,28-12.5,28-28C60,16.5,47.5,4,32,4S4,16.5,4,32
	c0,9.2,4.4,17.3,11.2,22.4l0,0c0.5,0.4,0.8,0.9,0.8,1.6c0,1.1-0.9,2-2,2c-0.5,0-0.9-0.2-1.2-0.4l0,0C5,51.8,0,42.5,0,32
	C0,14.3,14.3,0,32,0s32,14.3,32,32C64,49.7,49.7,64,32,64L32,64z M22,60c1.1,0,2,0.9,2,2c0,1.1-0.9,2-2,2s-2-0.9-2-2
	C20,60.9,20.9,60,22,60L22,60z M30,8c1.1,0,2,0.9,2,2v22.8l11.1,6.4c1,0.6,1.3,1.8,0.7,2.7c-0.6,1-1.8,1.3-2.7,0.7l-12.1-7
	c0,0,0,0-0.1,0c-0.1,0-0.1-0.1-0.2-0.1c0,0-0.1-0.1-0.1-0.1c0,0-0.1-0.1-0.1-0.1c0,0-0.1-0.1-0.1-0.1c0-0.1-0.1-0.1-0.1-0.2
	c0-0.1-0.1-0.1-0.1-0.2c0-0.1,0-0.1-0.1-0.2c0-0.1,0-0.1-0.1-0.2c0-0.1,0-0.1,0-0.2c0-0.1,0-0.1,0-0.2c0,0,0,0,0-0.1V10
	C28,8.9,28.9,8,30,8L30,8z"/>
</svg>
