<?xml version="1.0" encoding="utf-8"?>
<!-- Generator: Adobe Illustrator 25.2.1, SVG Export Plug-In . SVG Version: 6.00 Build 0)  -->
<svg version="1.1" id="Layer_1" xmlns="http://www.w3.org/2000/svg" xmlns:xlink="http://www.w3.org/1999/xlink" x="0px" y="0px"
	 viewBox="0 0 64 47.6" style="enable-background:new 0 0 64 47.6;" xml:space="preserve">
<style type="text/css">
	.st0{fill-rule:evenodd;clip-rule:evenodd;}
</style>
<path class="st0" d="M61.7,15.7L36,41.3c-0.1,0.1-0.2,0.3-0.4,0.5l-3.5,3.5c-1.6,1.6-3.6,2.4-5.7,2.3c-2.1,0-4.1-0.8-5.7-2.3
	l-4.5-4.5c-0.1-0.1-0.2-0.3-0.4-0.5L2.3,26.7c-3.1-3.1-3.1-8.2,0-11.3l3.5-3.5c3.1-3.1,8.2-3.1,11.3,0l5,5c0,0,0,0,0.1,0.1
	c1.6,1.6,5.1,1.6,6.7,0c0,0,0,0,0.1-0.1L38.8,7c0,0,0,0,0-0.1c0.8-0.8,2-0.8,2.8,0c0.8,0.8,0.8,2,0,2.8l0,0L31,20.4
	c0,0-0.1,0-0.1,0.1c-2.7,2.7-8.2,2.7-10.9,0c0,0-0.1,0-0.1-0.1l-5-5c-2-2-5.1-2-7.1,0l-2.1,2.1c-2,1.9-2,5.1,0,7.1l13.6,13.6
	c0.1,0.2,0.2,0.3,0.4,0.4l3.1,3.1c1,1,2.3,1.5,3.6,1.5c1.3,0,2.6-0.5,3.6-1.5l2.1-2.1c0.1-0.1,0.2-0.3,0.4-0.5l25.6-25.6
	c2-1.9,2-5.1,0-7.1l-3-3l0,0c0,0,0,0,0,0c-0.8-0.8-0.8-2,0-2.8c0.8-0.8,2-0.8,2.8,0c0,0,0,0,0,0l0,0l3.7,3.7
	C64.8,7.5,64.8,12.5,61.7,15.7L61.7,15.7z M46,5.5c-1.1,0-2-0.9-2-2c0-1.1,0.9-2,2-2s2,0.9,2,2C48,4.6,47.1,5.5,46,5.5L46,5.5z"/>
</svg>
